# xmcd CD database file
#
# Track frame offsets:
#	150
#	17972
#	35820
#	63230
#
# Disc length: 1186 seconds
#
# Revision: 0
# Processed by: cddbd v1.4b41PL2 Copyright (c) Steve Scherf et al.
# Submitted via: Feurio! 1.61 - http://www.feurio.com
#
DISCID=3104a004
DTITLE=883 - Chiuditi Nel Cesso
DYEAR=1900
DGENRE=
TTITLE0=Chiuditi Nel Cesso (Radio Version)
TTITLE1=Chiuditi Nel Cesso (Karaoke Version)
TTITLE2=Chiuditi Nel Cesso (Remix 1)
TTITLE3=Chiuditi Nel Cesso (Remix 2)
EXTD=
EXTT0=
EXTT1=
EXTT2=
EXTT3=
PLAYORDER=
